# xmcd
#
# Track frame offsets: 
#        150
#        5942
#        11960
#        23129
#        31410
#        43336
#        53700
#        61633
#        73443
#        80910
#        86499
#        93489
#        101605
#        107546
#        113012
#        124345
#
# Disc length: 1718 seconds
#
# Revision: 0
# Processed by: cddbd v1.5.2PL0 Copyright (c) Steve Scherf et al.
# Submitted via: ExactAudioCopy v1.0b3
#
DISCID=dc06b410
DTITLE=Alexandru Andries - Petrică are o oaie
DYEAR=2018
DGENRE=Blues
TTITLE0=Ce congres frumos
TTITLE1=Floricele paralele
TTITLE2=Patru asasini
TTITLE3=Petrică are o oaie
TTITLE4=Nu scapă nimeni
TTITLE5=Raport de activitate
TTITLE6=Nu vreau nici o pensie
TTITLE7=Iubesc o doamnă
TTITLE8=Cîntec vesel
TTITLE9=Fac orice
TTITLE10=Glossy
TTITLE11=Spune ce doresti
TTITLE12=Militienii v02
TTITLE13=Madagascar
TTITLE14=Magnific
TTITLE15=Telejurnal penal
EXTD=
EXTT0=
EXTT1=
EXTT2=
EXTT3=
EXTT4=
EXTT5=
EXTT6=
EXTT7=
EXTT8=
EXTT9=
EXTT10=
EXTT11=
EXTT12=
EXTT13=
EXTT14=
EXTT15=
PLAYORDER=
